# xmcd CD database file
#
# Track frame offsets:
#	150
#	11454
#	25473
#	41542
#	51239
#	65266
#	77020
#	90681
#	105238
#	116718
#	129292
#	140791
#	153626
#	164891
#	176307
#	190402
#
# Disc length: 2668 seconds
#
# Revision: 0
# Processed by: cddbd v1.5.2PL0 Copyright (c) Steve Scherf et al.
# Submitted via: CDex 1.51
#
DISCID=d60a6a10
DTITLE=Lowell Fulson - Great Blues Masters Vol.6
DYEAR=2006
DGENRE=Blues
TTITLE0=Talkin' Woman
TTITLE1=Tramp
TTITLE2=Black Nights
TTITLE3=Little Angel
TTITLE4=Too Many Drivers
TTITLE5=Shattered Dreams
TTITLE6=Everyday I Have The Blues
TTITLE7=Make A Little Love
TTITLE8=Blues Soul
TTITLE9=Two Way Wishing
TTITLE10=Blues Shadows
TTITLE11=I'm a Drifter
TTITLE12=Let's Go Get Stoned
TTITLE13=The Latter
TTITLE14=Teach Me
TTITLE15=Stoned To The Bone
EXTD=YEAR: 2006
EXTT0=
EXTT1=
EXTT2=
EXTT3=
EXTT4=
EXTT5=
EXTT6=
EXTT7=
EXTT8=
EXTT9=
EXTT10=
EXTT11=
EXTT12=
EXTT13=
EXTT14=
EXTT15=
PLAYORDER=
